# xmcd CD database file
#
# Track frame offsets:
#	150
#	14739
#	36014
#	65552
#	96225
#	121905
#	133234
#
# Disc length: 2342 seconds
#
# Revision: 0
# Processed by: cddbd v1.5.2PL0 Copyright (c) Steve Scherf et al.
# Submitted via: CDex 1.51
#
DISCID=62092407
DTITLE=Charles Kynard - Charles Kynard
DYEAR=1971
DGENRE=Jazz
TTITLE0=El Toro Poo Poo
TTITLE1=Greeze
TTITLE2=She
TTITLE3=Grits
TTITLE4=Greens
TTITLE5=Nightwood
TTITLE6=It's Too Late
EXTD=YEAR: 1971
EXTT0=
EXTT1=
EXTT2=
EXTT3=
EXTT4=
EXTT5=
EXTT6=
PLAYORDER=
